{
  "accessors": [
    {
      "bufferView": 2,
      "componentType": 5126,
      "count": 1187,
      "max": [
        1.0005466938018799,
        2.2623162269592285,
        1.2250109910964966
      ],
      "min": [
        -1.0005466938018799,
        -2.2567577362060547,
        0.07216988503932953
      ],
      "type": "VEC3"
    },
    {
      "bufferView": 2,
      "byteOffset": 14244,
      "componentType": 5126,
      "count": 1187,
      "max": [
        1.0,
        0.9959178566932678,
        0.9998044967651367
      ],
      "min": [
        -1.0,
        -0.9989412426948547,
        -0.7585880160331726
      ],
      "type": "VEC3"
    },
    {
      "bufferView": 1,
      "componentType": 5126,
      "count": 1187,
      "max": [
        0.7502514123916626,
        0.875
      ],
      "min": [
        0.36904361844062805,
        0.3749999701976776
      ],
      "type": "VEC2"
    },
    {
      "bufferView": 0,
      "componentType": 5125,
      "count": 4500,
      "type": "SCALAR"
    },
    {
      "bufferView": 2,
      "byteOffset": 28488,
      "componentType": 5126,
      "count": 109,
      "max": [
        0.7830555438995361,
        1.8548688888549805,
        1.1861244440078735
      ],
      "min": [
        -0.7830555438995361,
        -1.0498287677764893,
        0.7970825433731079
      ],
      "type": "VEC3"
    },
    {
      "bufferView": 2,
      "byteOffset": 29796,
      "componentType": 5126,
      "count": 109,
      "max": [
        0.9147577881813049,
        0.3119199275970459,
        0.9940402507781982
      ],
      "min": [
        -0.9147577881813049,
        -0.4768966734409332,
        0.4011257290840149
      ],
      "type": "VEC3"
    },
    {
      "bufferView": 1,
      "byteOffset": 9496,
      "componentType": 5126,
      "count": 109,
      "max": [
        0.75,
        0.6774473190307617
      ],
      "min": [
        0.644164502620697,
        0.5208890438079834
      ],
      "type": "VEC2"
    },
    {
      "bufferView": 0,
      "byteOffset": 18000,
      "componentType": 5125,
      "count": 390,
      "type": "SCALAR"
    },
    {
      "bufferView": 2,
      "byteOffset": 31104,
      "componentType": 5126,
      "count": 556,
      "max": [
        1.0005466938018799,
        2.2429938316345215,
        1.200960397720337
      ],
      "min": [
        -1.0005466938018799,
        -2.245762586593628,
        0.07216988503932953
      ],
      "type": "VEC3"
    },
    {
      "bufferView": 2,
      "byteOffset": 37776,
      "componentType": 5126,
      "count": 556,
      "max": [
        1.0,
        0.9993599057197571,
        0.9757660031318665
      ],
      "min": [
        -1.0,
        -0.9999979138374329,
        -0.9999686479568481
      ],
      "type": "VEC3"
    },
    {
      "bufferView": 1,
      "byteOffset": 10368,
      "componentType": 5126,
      "count": 556,
      "max": [
        0.75,
        0.875
      ],
      "min": [
        0.36904361844062805,
        0.3749999701976776
      ],
      "type": "VEC2"
    },
    {
      "bufferView": 0,
      "byteOffset": 19560,
      "componentType": 5125,
      "count": 1626,
      "type": "SCALAR"
    },
    {
      "bufferView": 2,
      "byteOffset": 44448,
      "componentType": 5126,
      "count": 24,
      "max": [
        0.8785321116447449,
        -1.7373008728027344,
        0.6031697988510132
      ],
      "min": [
        -0.8785321116447449,
        -2.112794876098633,
        0.4381914436817169
      ],
      "type": "VEC3"
    },
    {
      "bufferView": 2,
      "byteOffset": 44736,
      "componentType": 5126,
      "count": 24,
      "max": [
        0.6708571910858154,
        -0.6210160255432129,
        0.6483451128005981
      ],
      "min": [
        -0.670857310295105,
        -0.76824551820755,
        0.33717355132102966
      ],
      "type": "VEC3"
    },
    {
      "bufferView": 1,
      "byteOffset": 14816,
      "componentType": 5126,
      "count": 24,
      "max": [
        0.6911562085151672,
        0.7380288243293762
      ],
      "min": [
        0.6381612420082092,
        0.7256626486778259
      ],
      "type": "VEC2"
    },
    {
      "bufferView": 0,
      "byteOffset": 26064,
      "componentType": 5125,
      "count": 72,
      "type": "SCALAR"
    },
    {
      "bufferView": 2,
      "byteOffset": 45024,
      "componentType": 5126,
      "count": 32,
      "max": [
        0.8188499212265015,
        2.1202392578125,
        0.8329648375511169
      ],
      "min": [
        -0.8188499212265015,
        1.8666667938232422,
        0.7310329675674438
      ],
      "type": "VEC3"
    },
    {
      "bufferView": 2,
      "byteOffset": 45408,
      "componentType": 5126,
      "count": 32,
      "max": [
        0.7785239815711975,
        0.973832368850708,
        0.5475499033927917
      ],
      "min": [
        -0.7785239219665527,
        0.5945303440093994,
        -0.2042229324579239
      ],
      "type": "VEC3"
    },
    {
      "bufferView": 1,
      "byteOffset": 15008,
      "componentType": 5126,
      "count": 32,
      "max": [
        0.725593626499176,
        0.5180031061172485
      ],
      "min": [
        0.6312119960784912,
        0.5000885725021362
      ],
      "type": "VEC2"
    },
    {
      "bufferView": 0,
      "byteOffset": 26352,
      "componentType": 5125,
      "count": 84,
      "type": "SCALAR"
    },
    {
      "bufferView": 2,
      "byteOffset": 45792,
      "componentType": 5126,
      "count": 3356,
      "max": [
        0.994640052318573,
        -1.0676774978637695,
        0.6540200710296631
      ],
      "min": [
        -0.994640052318573,
        -1.7194585800170898,
        0.0022390782833099365
      ],
      "type": "VEC3"
    },
    {
      "bufferView": 2,
      "byteOffset": 86064,
      "componentType": 5126,
      "count": 3356,
      "max": [
        1.0,
        1.0,
        1.0
      ],
      "min": [
        -1.0,
        -1.0,
        -1.0
      ],
      "type": "VEC3"
    },
    {
      "bufferView": 1,
      "byteOffset": 15264,
      "componentType": 5126,
      "count": 3356,
      "max": [
        0.9973631501197815,
        1.0
      ],
      "min": [
        0.0,
        0.0
      ],
      "type": "VEC2"
    },
    {
      "bufferView": 0,
      "byteOffset": 26688,
      "componentType": 5125,
      "count": 6504,
      "type": "SCALAR"
    },
    {
      "bufferView": 2,
      "byteOffset": 126336,
      "componentType": 5126,
      "count": 854,
      "max": [
        0.9762076139450073,
        -1.1224572658538818,
        0.5992404222488403
      ],
      "min": [
        -0.9762076139450073,
        -1.6646788120269775,
        0.057018786668777466
      ],
      "type": "VEC3"
    },
    {
      "bufferView": 2,
      "byteOffset": 136584,
      "componentType": 5126,
      "count": 854,
      "max": [
        1.0,
        1.0,
        1.0
      ],
      "min": [
        -1.0,
        -1.0,
        -1.0
      ],
      "type": "VEC3"
    },
    {
      "bufferView": 1,
      "byteOffset": 42112,
      "componentType": 5126,
      "count": 854,
      "max": [
        0.8236681222915649,
        0.38891324400901794
      ],
      "min": [
        0.0,
        0.0
      ],
      "type": "VEC2"
    },
    {
      "bufferView": 0,
      "byteOffset": 52704,
      "componentType": 5125,
      "count": 2016,
      "type": "SCALAR"
    },
    {
      "bufferView": 2,
      "byteOffset": 146832,
      "componentType": 5126,
      "count": 3356,
      "max": [
        1.0091232061386108,
        1.836449146270752,
        0.7184872031211853
      ],
      "min": [
        -1.0091232061386108,
        1.1197744607925415,
        0.0018125176429748535
      ],
      "type": "VEC3"
    },
    {
      "bufferView": 2,
      "byteOffset": 187104,
      "componentType": 5126,
      "count": 3356,
      "max": [
        1.0,
        1.0,
        1.0
      ],
      "min": [
        -1.0,
        -1.0,
        -1.0
      ],
      "type": "VEC3"
    },
    {
      "bufferView": 1,
      "byteOffset": 48944,
      "componentType": 5126,
      "count": 3356,
      "max": [
        0.9973631501197815,
        1.0
      ],
      "min": [
        0.0,
        0.0
      ],
      "type": "VEC2"
    },
    {
      "bufferView": 0,
      "byteOffset": 60768,
      "componentType": 5125,
      "count": 6504,
      "type": "SCALAR"
    },
    {
      "bufferView": 2,
      "byteOffset": 227376,
      "componentType": 5126,
      "count": 854,
      "max": [
        0.9888556003570557,
        1.7762153148651123,
        0.6582534909248352
      ],
      "min": [
        -0.9888556003570557,
        1.1800082921981812,
        0.06204628944396973
      ],
      "type": "VEC3"
    },
    {
      "bufferView": 2,
      "byteOffset": 237624,
      "componentType": 5126,
      "count": 854,
      "max": [
        1.0,
        1.0,
        1.0
      ],
      "min": [
        -1.0,
        -1.0,
        -1.0
      ],
      "type": "VEC3"
    },
    {
      "bufferView": 1,
      "byteOffset": 75792,
      "componentType": 5126,
      "count": 854,
      "max": [
        0.8236681222915649,
        0.38891324400901794
      ],
      "min": [
        0.0,
        0.0
      ],
      "type": "VEC2"
    },
    {
      "bufferView": 0,
      "byteOffset": 86784,
      "componentType": 5125,
      "count": 2016,
      "type": "SCALAR"
    }
  ],
  "asset": {
    "extras": {
      "author": "kulonee (https://sketchfab.com/ynesolefru)",
      "license": "SKETCHFAB Standard (https://sketchfab.com/licenses)",
      "source": "https://sketchfab.com/3d-models/low-poly-tesla-roadster-97836607b9c7461fb044c606e4173f33",
      "title": "Low Poly Tesla Roadster"
    },
    "generator": "Sketchfab-16.8.0",
    "version": "2.0"
  },
  "bufferViews": [
    {
      "buffer": 0,
      "byteLength": 94848,
      "name": "floatBufferViews",
      "target": 34963
    },
    {
      "buffer": 0,
      "byteLength": 82624,
      "byteOffset": 94848,
      "byteStride": 8,
      "name": "floatBufferViews",
      "target": 34962
    },
    {
      "buffer": 0,
      "byteLength": 247872,
      "byteOffset": 177472,
      "byteStride": 12,
      "name": "floatBufferViews",
      "target": 34962
    }
  ],
  "buffers": [
    {
      "byteLength": 425344,
      "uri": "scene.bin"
    }
  ],
  "extensionsUsed": [
    "KHR_materials_clearcoat",
    "KHR_materials_specular"
  ],
  "materials": [
    {
      "doubleSided": true,
      "extensions": {
        "KHR_materials_clearcoat": {
          "clearcoatFactor": 0.2,
          "clearcoatRoughnessFactor": 0.1
        }
      },
      "name": "CarPaint",
      "pbrMetallicRoughness": {
        "baseColorFactor": [
          0.23015,
          0.0,
          0.0,
          1.0
        ],
        "roughnessFactor": 0.5
      }
    },
    {
      "doubleSided": true,
      "name": "Window",
      "pbrMetallicRoughness": {
        "baseColorFactor": [
          0.0,
          0.0,
          0.0,
          1.0
        ],
        "metallicFactor": 0.0,
        "roughnessFactor": 0.05
      }
    },
    {
      "doubleSided": true,
      "extensions": {
        "KHR_materials_specular": {
          "specularColorFactor": [
            1.0,
            1.0,
            1.0
          ],
          "specularFactor": 0.25
        }
      },
      "name": "Plastic",
      "pbrMetallicRoughness": {
        "baseColorFactor": [
          0.0,
          0.0,
          0.0,
          1.0
        ],
        "metallicFactor": 0.0,
        "roughnessFactor": 0.8
      }
    },
    {
      "doubleSided": true,
      "emissiveFactor": [
        0.804107,
        0.975429,
        1.0
      ],
      "name": "HeadLight",
      "pbrMetallicRoughness": {
        "baseColorFactor": [
          0.8,
          0.8,
          0.8,
          1.0
        ],
        "metallicFactor": 0.0,
        "roughnessFactor": 0.8211145618000169
      }
    },
    {
      "doubleSided": true,
      "emissiveFactor": [
        1.0,
        0.0,
        0.0
      ],
      "name": "RearLight",
      "pbrMetallicRoughness": {
        "baseColorFactor": [
          0.8002429999999998,
          0.002183369999999998,
          0.0,
          1.0
        ],
        "metallicFactor": 0.0,
        "roughnessFactor": 0.9616082315583323
      }
    },
    {
      "doubleSided": true,
      "name": "Tire",
      "pbrMetallicRoughness": {
        "baseColorFactor": [
          0.0,
          0.0,
          0.0,
          1.0
        ],
        "metallicFactor": 0.0,
        "roughnessFactor": 0.65
      }
    },
    {
      "doubleSided": true,
      "name": "Rims",
      "pbrMetallicRoughness": {
        "baseColorFactor": [
          0.555992,
          0.555992,
          0.555992,
          1.0
        ],
        "roughnessFactor": 0.35
      }
    }
  ],
  "meshes": [
    {
      "name": "Body_CarPaint_0",
      "primitives": [
        {
          "attributes": {
            "NORMAL": 1,
            "POSITION": 0,
            "TEXCOORD_0": 2
          },
          "indices": 3,
          "material": 0,
          "mode": 4
        }
      ]
    },
    {
      "name": "Body_Window_0",
      "primitives": [
        {
          "attributes": {
            "NORMAL": 5,
            "POSITION": 4,
            "TEXCOORD_0": 6
          },
          "indices": 7,
          "material": 1,
          "mode": 4
        }
      ]
    },
    {
      "name": "Body_Plastic_0",
      "primitives": [
        {
          "attributes": {
            "NORMAL": 9,
            "POSITION": 8,
            "TEXCOORD_0": 10
          },
          "indices": 11,
          "material": 2,
          "mode": 4
        }
      ]
    },
    {
      "name": "Body_HeadLight_0",
      "primitives": [
        {
          "attributes": {
            "NORMAL": 13,
            "POSITION": 12,
            "TEXCOORD_0": 14
          },
          "indices": 15,
          "material": 3,
          "mode": 4
        }
      ]
    },
    {
      "name": "Body_RearLight_0",
      "primitives": [
        {
          "attributes": {
            "NORMAL": 17,
            "POSITION": 16,
            "TEXCOORD_0": 18
          },
          "indices": 19,
          "material": 4,
          "mode": 4
        }
      ]
    },
    {
      "name": "Front Wheels.001_Tire_0",
      "primitives": [
        {
          "attributes": {
            "NORMAL": 21,
            "POSITION": 20,
            "TEXCOORD_0": 22
          },
          "indices": 23,
          "material": 5,
          "mode": 4
        }
      ]
    },
    {
      "name": "Front Wheels.001_Rims_0",
      "primitives": [
        {
          "attributes": {
            "NORMAL": 25,
            "POSITION": 24,
            "TEXCOORD_0": 26
          },
          "indices": 27,
          "material": 6,
          "mode": 4
        }
      ]
    },
    {
      "name": "Back Wheels.001_Tire_0",
      "primitives": [
        {
          "attributes": {
            "NORMAL": 29,
            "POSITION": 28,
            "TEXCOORD_0": 30
          },
          "indices": 31,
          "material": 5,
          "mode": 4
        }
      ]
    },
    {
      "name": "Back Wheels.001_Rims_0",
      "primitives": [
        {
          "attributes": {
            "NORMAL": 33,
            "POSITION": 32,
            "TEXCOORD_0": 34
          },
          "indices": 35,
          "material": 6,
          "mode": 4
        }
      ]
    }
  ],
  "nodes": [
    {
      "children": [
        1
      ],
      "matrix": [
        1.0,
        0.0,
        0.0,
        0.0,
        0.0,
        2.220446049250313e-16,
        -1.0,
        0.0,
        0.0,
        1.0,
        2.220446049250313e-16,
        0.0,
        0.0,
        0.0,
        0.0,
        1.0
      ],
      "name": "Sketchfab_model"
    },
    {
      "children": [
        2
      ],
      "matrix": [
        0.009999999776482582,
        0.0,
        0.0,
        0.0,
        0.0,
        0.0,
        0.009999999776482582,
        0.0,
        0.0,
        -0.009999999776482582,
        0.0,
        0.0,
        0.0,
        0.0,
        0.0,
        1.0
      ],
      "name": "f3ae29d95de14040bef30a14a3bb8561.fbx"
    },
    {
      "children": [
        3
      ],
      "name": "RootNode"
    },
    {
      "children": [
        4,
        5,
        6,
        7,
        8,
        9,
        12
      ],
      "matrix": [
        100.0,
        0.0,
        0.0,
        0.0,
        0.0,
        -1.629206793918314e-05,
        -99.99999999999868,
        0.0,
        0.0,
        99.99999999999868,
        -1.629206793918314e-05,
        0.0,
        0.0,
        0.0,
        0.0,
        1.0
      ],
      "name": "Body"
    },
    {
      "mesh": 0,
      "name": "Body_CarPaint_0"
    },
    {
      "mesh": 1,
      "name": "Body_Window_0"
    },
    {
      "mesh": 2,
      "name": "Body_Plastic_0"
    },
    {
      "mesh": 3,
      "name": "Body_HeadLight_0"
    },
    {
      "mesh": 4,
      "name": "Body_RearLight_0"
    },
    {
      "children": [
        10,
        11
      ],
      "matrix": [
        1.0,
        0.0,
        0.0,
        0.0,
        0.0,
        1.0,
        -2.646977960169688e-23,
        0.0,
        0.0,
        2.646977960169688e-23,
        1.0,
        0.0,
        0.0,
        0.0,
        0.0,
        1.0
      ],
      "name": "Front Wheels.001"
    },
    {
      "mesh": 5,
      "name": "Front Wheels.001_Tire_0"
    },
    {
      "mesh": 6,
      "name": "Front Wheels.001_Rims_0"
    },
    {
      "children": [
        13,
        14
      ],
      "matrix": [
        1.0,
        0.0,
        0.0,
        0.0,
        0.0,
        1.0,
        -2.646977960169688e-23,
        0.0,
        0.0,
        2.646977960169688e-23,
        1.0,
        0.0,
        0.0,
        0.0,
        0.0,
        1.0
      ],
      "name": "Back Wheels.001"
    },
    {
      "mesh": 7,
      "name": "Back Wheels.001_Tire_0"
    },
    {
      "mesh": 8,
      "name": "Back Wheels.001_Rims_0"
    }
  ],
  "scene": 0,
  "scenes": [
    {
      "name": "Sketchfab_Scene",
      "nodes": [
        0
      ]
    }
  ]
}
